<svg id="visual" viewBox="0 0 900 600" width="900" height="600" xmlns="http://www.w3.org/2000/svg" xmlns:xlink="http://www.w3.org/1999/xlink" version="1.1"><rect x="0" y="0" width="900" height="600" fill="#0F6FC5"></rect><defs><linearGradient id="grad1_0" x1="33.3%" y1="0%" x2="100%" y2="100%"><stop offset="20%" stop-color="#f7f7f7" stop-opacity="1"></stop><stop offset="80%" stop-color="#f7f7f7" stop-opacity="1"></stop></linearGradient></defs><defs><linearGradient id="grad1_1" x1="33.3%" y1="0%" x2="100%" y2="100%"><stop offset="20%" stop-color="#f7f7f7" stop-opacity="1"></stop><stop offset="80%" stop-color="#d3daee" stop-opacity="1"></stop></linearGradient></defs><defs><linearGradient id="grad1_2" x1="33.3%" y1="0%" x2="100%" y2="100%"><stop offset="20%" stop-color="#aebee4" stop-opacity="1"></stop><stop offset="80%" stop-color="#d3daee" stop-opacity="1"></stop></linearGradient></defs><defs><linearGradient id="grad1_3" x1="33.3%" y1="0%" x2="100%" y2="100%"><stop offset="20%" stop-color="#aebee4" stop-opacity="1"></stop><stop offset="80%" stop-color="#88a2da" stop-opacity="1"></stop></linearGradient></defs><defs><linearGradient id="grad1_4" x1="33.3%" y1="0%" x2="100%" y2="100%"><stop offset="20%" stop-color="#5c88cf" stop-opacity="1"></stop><stop offset="80%" stop-color="#88a2da" stop-opacity="1"></stop></linearGradient></defs><defs><linearGradient id="grad1_5" x1="33.3%" y1="0%" x2="100%" y2="100%"><stop offset="20%" stop-color="#5c88cf" stop-opacity="1"></stop><stop offset="80%" stop-color="#0f6fc5" stop-opacity="1"></stop></linearGradient></defs><defs><linearGradient id="grad2_0" x1="0%" y1="0%" x2="66.7%" y2="100%"><stop offset="20%" stop-color="#f7f7f7" stop-opacity="1"></stop><stop offset="80%" stop-color="#f7f7f7" stop-opacity="1"></stop></linearGradient></defs><defs><linearGradient id="grad2_1" x1="0%" y1="0%" x2="66.7%" y2="100%"><stop offset="20%" stop-color="#d3daee" stop-opacity="1"></stop><stop offset="80%" stop-color="#f7f7f7" stop-opacity="1"></stop></linearGradient></defs><defs><linearGradient id="grad2_2" x1="0%" y1="0%" x2="66.7%" y2="100%"><stop offset="20%" stop-color="#d3daee" stop-opacity="1"></stop><stop offset="80%" stop-color="#aebee4" stop-opacity="1"></stop></linearGradient></defs><defs><linearGradient id="grad2_3" x1="0%" y1="0%" x2="66.7%" y2="100%"><stop offset="20%" stop-color="#88a2da" stop-opacity="1"></stop><stop offset="80%" stop-color="#aebee4" stop-opacity="1"></stop></linearGradient></defs><defs><linearGradient id="grad2_4" x1="0%" y1="0%" x2="66.7%" y2="100%"><stop offset="20%" stop-color="#88a2da" stop-opacity="1"></stop><stop offset="80%" stop-color="#5c88cf" stop-opacity="1"></stop></linearGradient></defs><defs><linearGradient id="grad2_5" x1="0%" y1="0%" x2="66.7%" y2="100%"><stop offset="20%" stop-color="#0f6fc5" stop-opacity="1"></stop><stop offset="80%" stop-color="#5c88cf" stop-opacity="1"></stop></linearGradient></defs><g transform="translate(900, 0)"><path d="M0 432.7C-61 430.9 -121.9 429.2 -165.6 399.7C-209.2 370.3 -235.5 313.1 -270.1 270.1C-304.7 227.1 -347.5 198.4 -376 155.8C-404.5 113.1 -418.6 56.6 -432.7 0L0 0Z" fill="#407bca"></path><path d="M0 360.6C-50.8 359.1 -101.6 357.7 -138 333.1C-174.3 308.6 -196.3 260.9 -225.1 225.1C-253.9 189.3 -289.6 165.3 -313.3 129.8C-337.1 94.3 -348.8 47.1 -360.6 0L0 0Z" fill="#7395d5"></path><path d="M0 288.4C-40.6 287.3 -81.3 286.1 -110.4 266.5C-139.5 246.8 -157 208.7 -180.1 180.1C-203.1 151.4 -231.7 132.3 -250.7 103.8C-269.7 75.4 -279.1 37.7 -288.4 0L0 0Z" fill="#9bb0df"></path><path d="M0 216.3C-30.5 215.5 -61 214.6 -82.8 199.9C-104.6 185.1 -117.8 156.5 -135.1 135.1C-152.3 113.6 -173.8 99.2 -188 77.9C-202.2 56.6 -209.3 28.3 -216.3 0L0 0Z" fill="#c1cce9"></path><path d="M0 144.2C-20.3 143.6 -40.6 143.1 -55.2 133.2C-69.7 123.4 -78.5 104.4 -90 90C-101.6 75.7 -115.8 66.1 -125.3 51.9C-134.8 37.7 -139.5 18.9 -144.2 0L0 0Z" fill="#e5e8f2"></path><path d="M0 72.1C-10.2 71.8 -20.3 71.5 -27.6 66.6C-34.9 61.7 -39.3 52.2 -45 45C-50.8 37.9 -57.9 33.1 -62.7 26C-67.4 18.9 -69.8 9.4 -72.1 0L0 0Z" fill="#f7f7f7"></path></g><g transform="translate(0, 600)"><path d="M0 -432.7C51.3 -415.9 102.6 -399.1 158 -381.6C213.5 -364.1 273.2 -345.9 305.9 -305.9C338.7 -266 344.6 -204.2 361.2 -149.6C377.9 -95 405.3 -47.5 432.7 0L0 0Z" fill="#407bca"></path><path d="M0 -360.6C42.7 -346.5 85.5 -332.5 131.7 -318C177.9 -303.4 227.6 -288.2 255 -255C282.3 -221.7 287.2 -170.2 301 -124.7C314.9 -79.2 337.7 -39.6 360.6 0L0 0Z" fill="#7395d5"></path><path d="M0 -288.4C34.2 -277.2 68.4 -266 105.4 -254.4C142.3 -242.7 182.1 -230.6 204 -204C225.8 -177.3 229.7 -136.2 240.8 -99.8C251.9 -63.3 270.2 -31.7 288.4 0L0 0Z" fill="#9bb0df"></path><path d="M0 -216.3C25.6 -207.9 51.3 -199.5 79 -190.8C106.8 -182 136.6 -172.9 153 -153C169.4 -133 172.3 -102.1 180.6 -74.8C188.9 -47.5 202.6 -23.8 216.3 0L0 0Z" fill="#c1cce9"></path><path d="M0 -144.2C17.1 -138.6 34.2 -133 52.7 -127.2C71.2 -121.4 91.1 -115.3 102 -102C112.9 -88.7 114.9 -68.1 120.4 -49.9C126 -31.7 135.1 -15.8 144.2 0L0 0Z" fill="#e5e8f2"></path><path d="M0 -72.1C8.5 -69.3 17.1 -66.5 26.3 -63.6C35.6 -60.7 45.5 -57.6 51 -51C56.5 -44.3 57.4 -34 60.2 -24.9C63 -15.8 67.5 -7.9 72.1 0L0 0Z" fill="#f7f7f7"></path></g></svg>